<?xml version="1.0" encoding="utf-8"?>
<svg viewBox="38.923 102.676 168.485 187.275" xmlns="http://www.w3.org/2000/svg">
  <path style="fill: rgb(255, 255, 255); stroke-miterlimit: 1; stroke: rgb(255, 255, 255);" d="M 158.935 239.334 C 160.287 240.853 167.626 232.09 167.774 219.477 C 167.987 201.386 163.85 181.954 163.799 183.241 C 165.756 185.416 155.346 203.104 148.517 209.395 C 144.494 213.101 139.135 209.323 139.48 204.316 C 135.696 171.412 124.367 151.223 122.296 155.031 C 121.869 154.568 124.86 171.409 123.791 184.762 C 122.829 196.773 117.129 205.405 117.108 205.613 C 115.48 207.564 113.965 213.322 107.391 211.434 C 103.193 210.228 98.496 203.088 96.085 199.128 C 89.162 187.756 83.294 174.082 86.629 174.486 C 83.248 174.486 77.503 190.171 79.385 207.447 C 81.193 224.041 90.864 242.253 92.141 242.253 C 98.111 239.541 37.215 234.258 73.052 178.083 C 84.703 159.82 68.01 146.634 64.904 152.114 C 77.647 133.887 96.256 164.281 98.303 176.755 C 98.592 178.517 102.675 177.478 104.726 174.947 C 107.254 171.829 110.145 164.668 110.992 161.676 C 116.475 142.3 103.351 115.129 97.654 120.012 C 106.036 110.779 114.631 116.072 125.282 130.432 C 130.565 137.554 134.148 147.895 135.588 153.411 C 139.869 169.807 148.966 172.784 148.235 172.865 C 149.993 174.124 155.531 173.791 159.815 167.449 C 165.311 159.314 167.864 143.248 163.474 140.116 C 206.097 200.122 191.004 255.995 158.935 239.334 Z"/>
  <path style="fill: rgb(255, 255, 255); stroke-miterlimit: 1; stroke: rgb(255, 255, 255);" d="M 102.841 242.577 C 94.371 237.636 85.614 204.962 89.547 203.344 C 92.964 211.152 102.988 225.63 111.017 223.156 C 120.497 220.235 128.365 197.348 128.781 195.238 C 130.12 195.071 131.35 205.426 132.28 212.816 C 135.833 241.057 159.501 219.276 157.638 213.395 C 160.499 211.17 152.073 236.239 147.261 239.982 C 142.419 245.356 131.59 250.337 121.83 249.884 C 111.254 249.394 101.933 243.202 102.841 242.577 Z"/>
  <path style="fill: rgb(255, 255, 255); stroke-miterlimit: 1; stroke: rgb(255, 255, 255);" d="M 189.667 269.238 C 192.216 270.198 194.408 254.802 186.748 258.213 C 159.729 270.245 58.704 243.623 62.239 240.704 C 53.123 235.202 58.565 246.441 56.402 251.728 C 54.239 257.015 180.083 274.738 189.667 269.238 Z"/>
  <path style="fill: rgb(255, 255, 255); stroke-miterlimit: 1; stroke: rgb(255, 255, 255);" d="M 126.294 256.988 L 172.013 248.233 L 174.12 251.637 L 176.228 255.042 L 152.558 260.23"/>
  <path style="fill: rgb(255, 255, 255); stroke-miterlimit: 1; stroke: rgb(255, 255, 255);" d="M 100.679 262.5 L 57.879 264.121 L 63.391 275.47 L 128.888 267.039"/>
</svg>